#N canvas 50 50 1200 1400 10;
#X obj 155 51 adc~ 1 2;
#X obj 61 377 dac~ 1 2 3 4 5 6 7 8;
#X obj 251 106 +~;
#X obj 251 142 *~ 0.5;
#X obj 155 217 lop~ 150;
#X obj 229 217 bp~ 300 1;
#X obj 304 217 bp~ 1750 2;
#X obj 394 217 bp~ 6000 2;
#X obj 155 282 env~ 1024;
#X obj 155 312 s bass_env;
#X obj 304 282 env~ 1024;
#X obj 304 312 s mid_env;
#X obj 394 282 env~ 1024;
#X obj 394 312 s high_env;
#X connect 0 0 2 0;
#X connect 0 0 1 0;
#X connect 0 1 2 1;
#X connect 0 1 1 1;
#X connect 2 0 3 0;
#X connect 3 0 4 0;
#X connect 3 0 5 0;
#X connect 3 0 6 0;
#X connect 3 0 7 0;
#X connect 4 0 8 0;
#X connect 4 0 1 2;
#X connect 5 0 1 3;
#X connect 6 0 10 0;
#X connect 6 0 1 4;
#X connect 7 0 12 0;
#X connect 7 0 1 5;
#X connect 8 0 9 0;
#X connect 10 0 11 0;
#X connect 12 0 13 0;
